<svg width="284" height="393" viewBox="0 0 284 393" fill="none" xmlns="http://www.w3.org/2000/svg">
<path d="M264.623 235.529C265.628 235.529 266.127 236.281 266.127 237.787C266.127 239.293 265.628 240.046 264.623 240.046C259.862 240.046 252.468 239.796 242.443 239.293C232.417 238.79 225.148 238.54 220.636 238.54C215.122 238.54 208.104 238.79 199.582 239.293C191.561 239.796 185.42 240.046 181.16 240.046C180.157 240.046 179.656 239.293 179.656 237.787C179.656 236.281 180.157 235.529 181.16 235.529C190.433 235.529 197.201 234.649 201.462 232.894C205.723 231.137 207.853 228.126 207.853 223.86C207.853 220.346 206.224 214.951 202.966 207.673L159.729 115.45H88.6708L56.3374 192.24C52.8283 200.772 51.0738 207.799 51.0738 213.32C51.0738 228.126 63.3554 235.529 87.9189 235.529C89.1719 235.529 89.7988 236.281 89.7988 237.787C89.7988 239.293 89.1719 240.046 87.9189 240.046C83.4073 240.046 76.8903 239.796 68.3685 239.293C58.8438 238.79 50.5724 238.54 43.5544 238.54C37.0375 238.54 29.5181 238.79 20.9962 239.293C13.4768 239.796 7.21043 240.046 2.19773 240.046C0.944378 240.046 0.317871 239.293 0.317871 237.787C0.317871 236.281 0.944378 235.529 2.19773 235.529C9.21572 235.529 15.1058 234.273 19.8683 231.764C24.881 229.004 29.5181 224.362 33.7792 217.837C38.2909 211.061 43.1785 201.4 48.4421 188.852L127.772 1.39415C128.273 0.641308 129.15 0.264893 130.404 0.264893C131.657 0.264893 132.408 0.641308 132.659 1.39415L221.388 188.476C229.91 207.046 237.179 219.593 243.195 226.118C249.21 232.392 256.352 235.529 264.623 235.529ZM92.0546 107.545H155.97L122.132 36.025L92.0546 107.545Z" fill="#A58677" fill-opacity="0.1"/>
<path d="M199.567 239.043L199.566 239.043C191.547 239.546 185.412 239.796 181.16 239.796C180.731 239.796 180.438 239.641 180.24 239.343C180.029 239.026 179.906 238.52 179.906 237.787C179.906 237.054 180.029 236.548 180.24 236.232C180.438 235.934 180.731 235.779 181.16 235.779C190.44 235.779 197.248 234.9 201.557 233.125L201.462 232.894L201.557 233.125C203.72 232.233 205.361 231.015 206.46 229.462C207.559 227.908 208.103 226.036 208.103 223.86C208.103 220.288 206.453 214.85 203.194 207.571L203.192 207.567L159.956 115.344L159.888 115.2H159.729H88.6708H88.5049L88.4404 115.353L56.107 192.143L56.1062 192.145C52.5918 200.69 50.8238 207.752 50.8238 213.32C50.8238 220.807 53.9372 226.442 60.156 230.191C66.3546 233.927 75.6202 235.779 87.9189 235.779C88.4936 235.779 88.8834 235.949 89.1366 236.253C89.397 236.566 89.5488 237.063 89.5488 237.787C89.5488 238.511 89.397 239.008 89.1366 239.321C88.8834 239.625 88.4936 239.796 87.9189 239.796C83.4147 239.796 76.9036 239.546 68.3832 239.043L68.3816 239.043C58.854 238.54 50.578 238.29 43.5544 238.29C37.0314 238.29 29.5069 238.54 20.9815 239.043L20.9795 239.043C13.4633 239.546 7.20289 239.796 2.19773 239.796C1.62288 239.796 1.23306 239.625 0.979947 239.321C0.719519 239.008 0.567871 238.512 0.567871 237.787C0.567871 237.063 0.719519 236.566 0.979945 236.253C1.23305 235.949 1.62288 235.779 2.19773 235.779C9.24444 235.779 15.1772 234.518 19.9848 231.986L19.9889 231.983C25.0479 229.197 29.7123 224.521 33.988 217.974C38.5121 211.18 43.4066 201.502 48.6726 188.949L127.993 1.51377C128.433 0.867575 129.21 0.514893 130.404 0.514893C131.622 0.514893 132.224 0.877773 132.422 1.47319L132.427 1.48758L132.433 1.50128L221.161 188.58C229.683 207.151 236.966 219.731 243.011 226.288L243.014 226.291C249.074 232.611 256.28 235.779 264.623 235.779C265.053 235.779 265.345 235.934 265.544 236.232C265.754 236.548 265.877 237.054 265.877 237.787C265.877 238.52 265.754 239.026 265.544 239.343C265.345 239.641 265.053 239.796 264.623 239.796C259.869 239.796 252.48 239.546 242.455 239.043C232.429 238.54 225.155 238.29 220.636 238.29C215.115 238.29 208.092 238.54 199.567 239.043ZM91.8241 107.448L91.6782 107.795H92.0546H155.97H156.364L156.195 107.438L122.358 35.9181L122.119 35.412L121.902 35.9281L91.8241 107.448Z" stroke="#A69985" stroke-opacity="0.2" stroke-width="0.5"/>
<path d="M191.873 251.698C252.667 251.698 283.063 273.342 283.063 316.631C283.063 331.321 279.656 344.441 272.844 355.984C266.292 367.526 256.991 376.448 244.936 382.744C232.883 389.041 219.125 392.189 203.665 392.189C196.59 392.189 188.336 391.795 178.902 391.008C174.972 390.745 170.255 390.485 164.752 390.221C159.249 389.958 153.354 389.828 147.065 389.828L120.337 390.221C115.62 390.485 108.938 390.615 100.291 390.615C99.7665 390.615 99.5044 389.828 99.5044 388.253C99.5044 386.679 99.7665 385.892 100.291 385.892C110.248 385.892 117.585 385.235 122.302 383.925C127.019 382.351 130.294 379.726 132.128 376.054C133.963 372.382 134.88 366.609 134.88 358.739V176.533C134.88 168.663 133.963 162.891 132.128 159.218C130.556 155.545 127.412 153.052 122.695 151.741C118.24 150.167 111.034 149.379 101.077 149.379C100.291 149.379 99.8974 148.592 99.8974 147.018C99.8974 145.444 100.291 144.657 101.077 144.657H255.942C257.514 144.657 258.564 145.051 259.087 145.838C259.61 146.362 260.003 147.543 260.266 149.379L265.376 199.752C265.376 200.539 264.719 200.932 263.41 200.932C262.101 200.932 261.182 200.539 260.659 199.752C258.037 185.06 252.535 173.516 244.15 165.121C236.027 156.726 225.939 152.528 213.885 152.528H191.48C182.309 152.528 175.496 153.315 171.041 154.889C166.849 156.201 163.966 158.693 162.394 162.366C160.822 165.777 160.036 171.286 160.036 178.894V253.666C172.351 252.355 182.964 251.698 191.873 251.698ZM195.804 385.105C216.767 385.105 231.965 380.383 241.399 370.938C250.832 361.23 255.549 346.539 255.549 326.863C255.549 302.727 249.26 285.542 236.682 275.31C224.104 264.814 206.024 259.568 182.44 259.568C174.579 259.568 167.111 260.092 160.036 261.143V358.739C160.036 367.92 162.394 374.61 167.111 378.809C171.827 383.008 181.392 385.105 195.804 385.105Z" fill="#A58677" fill-opacity="0.1"/>
<path d="M272.628 355.857L272.626 355.86C266.098 367.36 256.834 376.248 244.821 382.522C232.807 388.798 219.091 391.939 203.665 391.939C196.599 391.939 188.352 391.546 178.923 390.759L178.919 390.759C174.986 390.495 170.268 390.235 164.764 389.971C159.257 389.708 153.357 389.578 147.065 389.578L147.061 389.578L120.333 389.971L120.333 389.971L120.323 389.972C115.613 390.235 108.936 390.365 100.291 390.365C100.195 390.365 100.058 390.306 99.9382 389.945C99.8201 389.591 99.7544 389.033 99.7544 388.253C99.7544 387.474 99.8201 386.916 99.9382 386.562C100.058 386.201 100.195 386.142 100.291 386.142C110.252 386.142 117.618 385.486 122.369 384.166L122.369 384.166L122.381 384.162C127.146 382.571 130.482 379.909 132.352 376.166C134.213 372.44 135.13 366.619 135.13 358.739V176.533C135.13 168.658 134.214 162.84 132.355 159.113C130.746 155.36 127.534 152.829 122.77 151.502C118.272 149.915 111.032 149.129 101.077 149.129C100.924 149.129 100.801 149.092 100.7 149.024C100.596 148.955 100.499 148.845 100.416 148.677C100.245 148.336 100.147 147.793 100.147 147.018C100.147 146.244 100.245 145.7 100.416 145.359C100.499 145.192 100.596 145.082 100.7 145.013C100.801 144.945 100.924 144.907 101.077 144.907H255.942C257.487 144.907 258.426 145.295 258.878 145.976L258.892 145.997L258.91 146.014C259.131 146.236 259.345 146.62 259.536 147.196C259.726 147.766 259.887 148.502 260.018 149.41C260.018 149.412 260.018 149.413 260.018 149.415L265.125 199.764C265.122 200.066 265.002 200.275 264.755 200.423C264.485 200.585 264.048 200.682 263.41 200.682C262.175 200.682 261.361 200.321 260.896 199.655C258.264 184.952 252.747 173.375 244.329 164.945C236.157 156.501 226.003 152.278 213.885 152.278H191.48C182.305 152.278 175.458 153.064 170.962 154.652C166.711 155.983 163.769 158.52 162.165 162.265C160.57 165.727 159.786 171.282 159.786 178.894V253.666V253.944L160.062 253.914C172.372 252.604 182.975 251.948 191.873 251.948C222.248 251.948 244.984 257.356 260.121 268.135C275.242 278.902 282.813 295.052 282.813 316.631C282.813 331.281 279.415 344.356 272.628 355.857ZM241.576 371.115L241.578 371.112C251.074 361.34 255.799 346.575 255.799 326.863C255.799 302.69 249.501 285.416 236.841 275.117C224.202 264.571 206.056 259.318 182.44 259.318C174.568 259.318 167.087 259.843 159.999 260.895L159.786 260.927V261.143V358.739C159.786 367.958 162.154 374.731 166.944 378.995C169.348 381.135 172.965 382.722 177.768 383.776C182.574 384.83 188.587 385.355 195.804 385.355C216.797 385.355 232.075 380.627 241.576 371.115Z" stroke="#A69985" stroke-opacity="0.2" stroke-width="0.5"/>
</svg>
