<svg width="148" height="203" viewBox="0 0 148 203" fill="none" xmlns="http://www.w3.org/2000/svg">
<path d="M137.76 121.806C138.283 121.806 138.542 122.195 138.542 122.972C138.542 123.749 138.283 124.137 137.76 124.137C135.286 124.137 131.444 124.009 126.234 123.749C121.024 123.489 117.247 123.36 114.903 123.36C112.037 123.36 108.39 123.489 103.962 123.749C99.7938 124.009 96.6026 124.137 94.3885 124.137C93.8674 124.137 93.607 123.749 93.607 122.972C93.607 122.195 93.8674 121.806 94.3885 121.806C99.2077 121.806 102.724 121.352 104.939 120.446C107.153 119.54 108.26 117.986 108.26 115.784C108.26 113.971 107.413 111.186 105.72 107.431L83.2522 59.8354H46.3267L29.5246 99.4657C27.7011 103.869 26.7894 107.495 26.7894 110.345C26.7894 117.986 33.1716 121.806 45.936 121.806C46.5871 121.806 46.9129 122.195 46.9129 122.972C46.9129 123.749 46.5871 124.137 45.936 124.137C43.5915 124.137 40.205 124.009 35.7766 123.749C30.8271 123.489 26.5289 123.36 22.882 123.36C19.4954 123.36 15.588 123.489 11.1596 123.749C7.25212 124.009 3.99579 124.137 1.39093 124.137C0.739627 124.137 0.414062 123.749 0.414062 122.972C0.414062 122.195 0.739627 121.806 1.39093 121.806C5.03783 121.806 8.09862 121.158 10.5735 119.864C13.1783 118.439 15.588 116.043 17.8023 112.676C20.1467 109.179 22.6866 104.193 25.4218 97.7173L66.6455 0.972809C66.9059 0.584277 67.3618 0.390015 68.0131 0.390015C68.6643 0.390015 69.055 0.584277 69.1854 0.972809L115.293 97.523C119.722 107.107 123.499 113.582 126.625 116.95C129.751 120.187 133.462 121.806 137.76 121.806ZM48.0851 55.7558H81.2985L63.7149 18.8453L48.0851 55.7558Z" fill="#A58677" fill-opacity="0.2"/>
<path d="M103.947 123.499L103.946 123.499C99.7798 123.759 96.5948 123.887 94.3885 123.887C94.2002 123.887 94.0879 123.823 94.01 123.707C93.9202 123.573 93.857 123.34 93.857 122.972C93.857 122.603 93.9202 122.371 94.01 122.237C94.0879 122.121 94.2002 122.056 94.3885 122.056C99.214 122.056 102.772 121.603 105.033 120.678L105.033 120.678C106.173 120.211 107.046 119.57 107.633 118.746C108.221 117.92 108.51 116.929 108.51 115.784C108.51 113.913 107.642 111.085 105.948 107.328L105.946 107.324L83.4783 59.7287L83.4107 59.5854H83.2522H46.3267H46.1612L46.0966 59.7378L29.2945 99.3681L29.2937 99.37C27.4649 103.786 26.5394 107.448 26.5394 110.345C26.5394 114.25 28.1786 117.198 31.4476 119.155C34.6963 121.1 39.537 122.056 45.936 122.056C46.2103 122.056 46.3745 122.136 46.477 122.258C46.5865 122.389 46.6629 122.612 46.6629 122.972C46.6629 123.332 46.5865 123.555 46.477 123.685C46.3745 123.808 46.2103 123.887 45.936 123.887C43.5989 123.887 40.2182 123.759 35.7912 123.499L35.7897 123.499C30.8372 123.24 26.5344 123.11 22.882 123.11C19.4894 123.11 15.5769 123.24 11.1449 123.499L11.143 123.499C7.23867 123.759 3.98829 123.887 1.39093 123.887C1.11654 123.887 0.952308 123.808 0.849869 123.686C0.740338 123.555 0.664062 123.332 0.664062 122.972C0.664062 122.612 0.740338 122.389 0.849867 122.258C0.952304 122.136 1.11654 122.056 1.39093 122.056C5.06633 122.056 8.16952 121.403 10.6894 120.085L10.6934 120.083C13.3445 118.633 15.7817 116.203 18.0106 112.814C20.3677 109.298 22.9145 104.296 25.6521 97.8146L66.8658 1.09373C67.0654 0.810513 67.4221 0.640015 68.0131 0.640015C68.6306 0.640015 68.8709 0.821396 68.9484 1.05234L68.9532 1.06679L68.9598 1.08054L115.066 97.6279C115.067 97.6283 115.067 97.6287 115.067 97.6292C119.496 107.213 123.287 113.721 126.442 117.12L126.445 117.123C129.616 120.407 133.391 122.056 137.76 122.056C137.949 122.056 138.062 122.121 138.139 122.237C138.229 122.371 138.292 122.603 138.292 122.972C138.292 123.341 138.229 123.573 138.139 123.707C138.062 123.823 137.949 123.887 137.76 123.887C135.293 123.887 131.456 123.759 126.247 123.499C121.036 123.24 117.254 123.11 114.903 123.11C112.03 123.11 108.378 123.24 103.947 123.499ZM47.8549 55.6583L47.7077 56.0058H48.0851H81.2985H81.6945L81.5242 55.6483L63.9406 18.7378L63.7015 18.2358L63.4847 18.7478L47.8549 55.6583Z" stroke="#A69985" stroke-opacity="0.3" stroke-width="0.5"/>
<path d="M99.9562 130.151C131.547 130.151 147.343 141.321 147.343 163.662C147.343 171.244 145.572 178.015 142.032 183.972C138.628 189.929 133.795 194.533 127.53 197.782C121.267 201.032 114.118 202.656 106.084 202.656C102.407 202.656 98.1179 202.453 93.2158 202.047C91.1732 201.911 88.7222 201.777 85.8626 201.641C83.0031 201.505 79.9393 201.438 76.6712 201.438L62.782 201.641C60.3309 201.777 56.8586 201.844 52.365 201.844C52.0928 201.844 51.9565 201.438 51.9565 200.625C51.9565 199.813 52.0928 199.407 52.365 199.407C57.5394 199.407 61.3522 199.068 63.8033 198.391C66.2543 197.579 67.9563 196.224 68.9096 194.33C69.8628 192.435 70.3394 189.455 70.3394 185.393V91.3597C70.3394 87.2978 69.8628 84.3189 68.9096 82.4234C68.0926 80.5279 66.4586 79.2415 64.0075 78.5646C61.6927 77.7522 57.9479 77.346 52.7736 77.346C52.365 77.346 52.1608 76.9398 52.1608 76.1275C52.1608 75.3151 52.365 74.9089 52.7736 74.9089H133.249C134.066 74.9089 134.612 75.112 134.884 75.5182C135.155 75.7889 135.36 76.3982 135.496 77.346L138.152 103.342C138.152 103.749 137.811 103.952 137.13 103.952C136.45 103.952 135.972 103.749 135.701 103.342C134.338 95.7602 131.479 89.8026 127.122 85.4699C122.901 81.1372 117.658 78.9708 111.394 78.9708H99.7519C94.986 78.9708 91.4455 79.377 89.1307 80.1894C86.9519 80.8663 85.4541 82.1527 84.6371 84.0482C83.8201 85.8084 83.4116 88.6518 83.4116 92.5783V131.167C89.8115 130.49 95.3263 130.151 99.9562 130.151ZM101.999 199.001C112.892 199.001 120.79 196.564 125.692 191.689C130.594 186.679 133.045 179.097 133.045 168.942C133.045 156.486 129.777 147.617 123.241 142.337C116.705 136.92 107.309 134.213 95.0541 134.213C90.969 134.213 87.0882 134.483 83.4116 135.025V185.393C83.4116 190.132 84.6371 193.584 87.0882 195.751C89.5392 197.918 94.5093 199.001 101.999 199.001Z" fill="#A58677" fill-opacity="0.2"/>
<path d="M141.817 183.844L141.815 183.848C138.435 189.762 133.638 194.332 127.415 197.56C121.192 200.789 114.083 202.406 106.084 202.406C102.416 202.406 98.1338 202.204 93.2364 201.798L93.2324 201.798C91.1877 201.662 88.7349 201.527 85.8745 201.391C83.0105 201.255 79.9427 201.188 76.6712 201.188L76.6676 201.188L62.7783 201.391L62.7783 201.391L62.7681 201.391C60.3243 201.527 56.8579 201.594 52.3664 201.594C52.3654 201.593 52.3642 201.592 52.3626 201.591C52.3493 201.577 52.3229 201.541 52.2957 201.46C52.2408 201.296 52.2065 201.024 52.2065 200.625C52.2065 200.227 52.2408 199.955 52.2957 199.791C52.3229 199.71 52.3493 199.674 52.3626 199.66C52.3642 199.659 52.3654 199.658 52.3664 199.657C57.5444 199.657 61.3849 199.318 63.8698 198.632L63.8698 198.633L63.8819 198.629C66.3813 197.8 68.1437 196.408 69.1329 194.442C70.1133 192.493 70.5894 189.465 70.5894 185.393V91.3597C70.5894 87.2928 70.1144 84.2675 69.1363 82.3177C68.2823 80.3425 66.5804 79.0177 64.0823 78.3259C61.7244 77.5005 57.9461 77.096 52.7736 77.096C52.7149 77.096 52.6748 77.0821 52.6436 77.0615C52.611 77.0398 52.5734 77.0009 52.5373 76.9291C52.4616 76.7784 52.4108 76.5208 52.4108 76.1275C52.4108 75.7341 52.4616 75.4765 52.5373 75.3258C52.5734 75.2541 52.611 75.2151 52.6436 75.1934C52.6748 75.1728 52.7149 75.1589 52.7736 75.1589H133.249C134.04 75.1589 134.475 75.357 134.676 75.6572L134.69 75.6778L134.707 75.6953C134.803 75.7907 134.906 75.9681 135.003 76.2576C135.099 76.5419 135.181 76.9135 135.248 77.3767L137.901 103.354C137.899 103.464 137.857 103.531 137.768 103.585C137.655 103.652 137.454 103.702 137.13 103.702C136.525 103.702 136.151 103.531 135.937 103.244C134.564 95.6505 131.69 89.6604 127.299 85.2939C123.029 80.9121 117.722 78.7208 111.394 78.7208H99.7519C94.9821 78.7208 91.4083 79.1261 89.0522 79.952C86.8155 80.648 85.2579 81.979 84.4089 83.946C83.5687 85.7586 83.1616 88.6474 83.1616 92.5783V131.167V131.444L83.4379 131.415C89.8322 130.739 95.3378 130.401 99.9562 130.401C115.73 130.401 127.516 133.191 135.352 138.733C143.173 144.263 147.093 152.558 147.093 163.662C147.093 171.203 145.332 177.929 141.817 183.844ZM125.868 191.867L125.871 191.864C130.836 186.79 133.295 179.133 133.295 168.942C133.295 156.449 130.017 147.491 123.4 142.143C116.802 136.677 107.342 133.963 95.0541 133.963C90.958 133.963 87.0649 134.234 83.3751 134.778L83.1616 134.81V135.025V185.393C83.1616 190.17 84.3974 193.706 86.9226 195.938C88.1931 197.062 90.0951 197.887 92.6008 198.433C95.1095 198.979 98.2437 199.251 101.999 199.251C112.921 199.251 120.899 196.808 125.868 191.867Z" stroke="#A69985" stroke-opacity="0.3" stroke-width="0.5"/>
</svg>
