<svg width="72" height="99" viewBox="0 0 72 99" fill="none" xmlns="http://www.w3.org/2000/svg">
<path d="M66.7916 59.3628C67.0439 59.3628 67.1692 59.5515 67.1692 59.9289C67.1692 60.3064 67.0439 60.4951 66.7916 60.4951C65.5961 60.4951 63.7397 60.4325 61.2223 60.3064C58.7048 60.1803 56.8797 60.1176 55.7469 60.1176C54.3623 60.1176 52.6001 60.1803 50.4603 60.3064C48.4464 60.4325 46.9044 60.4951 45.8346 60.4951C45.5828 60.4951 45.457 60.3064 45.457 59.9289C45.457 59.5515 45.5828 59.3628 45.8346 59.3628C48.1632 59.3628 49.8624 59.1423 50.9323 58.7023C52.0022 58.262 52.5372 57.5071 52.5372 56.4377C52.5372 55.557 52.1281 54.2046 51.31 52.3803L40.4536 29.2626H22.6115L14.4928 48.5116C13.6117 50.6504 13.1712 52.4118 13.1712 53.7957C13.1712 57.5071 16.255 59.3628 22.4226 59.3628C22.7373 59.3628 22.8947 59.5515 22.8947 59.9289C22.8947 60.3064 22.7373 60.4951 22.4226 60.4951C21.2898 60.4951 19.6535 60.4325 17.5137 60.3064C15.1221 60.1803 13.0453 60.1176 11.2831 60.1176C9.64675 60.1176 7.75869 60.1803 5.61892 60.3064C3.73086 60.4325 2.15742 60.4951 0.898774 60.4951C0.584068 60.4951 0.426758 60.3064 0.426758 59.9289C0.426758 59.5515 0.584068 59.3628 0.898774 59.3628C2.66093 59.3628 4.13988 59.048 5.33571 58.4192C6.59436 57.7272 7.75869 56.5635 8.82862 54.928C9.96146 53.2295 11.1887 50.8077 12.5103 47.6624L32.4294 0.672232C32.5552 0.483516 32.7755 0.38916 33.0902 0.38916C33.4048 0.38916 33.5936 0.483516 33.6566 0.672232L55.9357 47.5681C58.0755 52.2231 59.9006 55.3683 61.4111 57.0038C62.9215 58.5764 64.7147 59.3628 66.7916 59.3628ZM23.4611 27.2811H39.5096L31.0133 9.35315L23.4611 27.2811Z" fill="#A58677" fill-opacity="0.8"/>
<path d="M50.4456 60.0568L50.4447 60.0568C48.4323 60.1828 46.8965 60.2451 45.8346 60.2451C45.803 60.2451 45.7875 60.2393 45.7811 60.2361C45.7757 60.2334 45.7685 60.2286 45.7593 60.2148C45.7365 60.1806 45.707 60.0978 45.707 59.9289C45.707 59.7601 45.7365 59.6772 45.7593 59.643C45.7685 59.6293 45.7757 59.6245 45.7811 59.6218C45.7875 59.6186 45.803 59.6128 45.8346 59.6128C48.1695 59.6128 49.91 59.3931 51.0274 58.9335L51.0275 58.9335C51.5952 58.6998 52.039 58.3751 52.3399 57.9505C52.6418 57.5244 52.7872 57.0158 52.7872 56.4377C52.7872 55.499 52.3568 54.1037 51.5381 52.278L51.5381 52.278L51.5362 52.274L40.6799 29.1564L40.6124 29.0126H40.4536H22.6115H22.4456L22.3811 29.1655L14.2624 48.4145L14.2616 48.4164C13.3753 50.5678 12.9212 52.3644 12.9212 53.7957C12.9212 55.7357 13.7352 57.2105 15.3551 58.1852C16.9547 59.1478 19.3219 59.6128 22.4226 59.6128C22.5283 59.6128 22.5662 59.6423 22.5846 59.6644C22.6103 59.6952 22.6447 59.7688 22.6447 59.9289C22.6447 60.089 22.6103 60.1626 22.5846 60.1934C22.5662 60.2156 22.5283 60.2451 22.4226 60.2451C21.2973 60.2451 19.6667 60.1828 17.5284 60.0568L17.5269 60.0567C15.1323 59.9305 13.0509 59.8676 11.2831 59.8676C9.64065 59.8676 7.74752 59.9305 5.60421 60.0568L5.60226 60.0569C3.71735 60.1828 2.14989 60.2451 0.898774 60.2451C0.79311 60.2451 0.755209 60.2156 0.736772 60.1934C0.711073 60.1626 0.676758 60.0891 0.676758 59.9289C0.676758 59.7688 0.711074 59.6952 0.736772 59.6644C0.755208 59.6423 0.793108 59.6128 0.898774 59.6128C2.6896 59.6128 4.21114 59.293 5.45206 58.6405L5.45208 58.6405L5.45616 58.6383C6.76103 57.9209 7.95277 56.7233 9.03725 55.0657C10.1826 53.3483 11.4168 50.9103 12.7408 47.7593L32.6491 0.79454C32.7151 0.70794 32.8393 0.63916 33.0902 0.63916C33.3704 0.63916 33.409 0.720141 33.4195 0.751387L33.4243 0.765793L33.4308 0.77951L55.7086 47.6725C55.7088 47.6729 55.709 47.6733 55.7092 47.6738C57.8491 52.3291 59.6878 55.5063 61.2274 57.1734L61.2274 57.1735L61.2308 57.177C62.7857 58.7959 64.643 59.6128 66.7916 59.6128C66.8234 59.6128 66.8389 59.6186 66.8454 59.6218C66.8507 59.6245 66.8578 59.6292 66.867 59.6429C66.8897 59.6771 66.9192 59.7599 66.9192 59.9289C66.9192 60.0979 66.8897 60.1808 66.867 60.2149C66.8578 60.2286 66.8507 60.2334 66.8453 60.236C66.8389 60.2392 66.8234 60.2451 66.7916 60.2451C65.6027 60.2451 63.7514 60.1827 61.2348 60.0567C58.7169 59.9305 56.8864 59.8676 55.7469 59.8676C54.3555 59.8676 52.588 59.9305 50.4456 60.0568ZM23.2307 27.1841L23.0845 27.5311H23.4611H39.5096H39.9047L39.7355 27.1741L31.2392 9.24609L30.9999 8.74105L30.7829 9.2561L23.2307 27.1841Z" stroke="#A69985" stroke-opacity="0.8" stroke-width="0.5"/>
<path d="M48.5251 63.4164C63.7898 63.4164 71.4221 68.842 71.4221 79.6931C71.4221 83.3757 70.5665 86.6645 68.8561 89.5578C67.2109 92.4512 64.8757 94.6874 61.8488 96.2658C58.8222 97.8441 55.3679 98.6333 51.4859 98.6333C49.7094 98.6333 47.6369 98.5347 45.2682 98.3374C44.2813 98.2713 43.0969 98.2061 41.7152 98.1401C40.3335 98.074 38.8531 98.0414 37.274 98.0414L30.5628 98.1401C29.3785 98.2061 27.7007 98.2387 25.5294 98.2387C25.3979 98.2387 25.332 98.0414 25.332 97.6468C25.332 97.2523 25.3979 97.055 25.5294 97.055C28.0296 97.055 29.872 96.8903 31.0563 96.5617C32.2406 96.1671 33.063 95.5092 33.5236 94.5888C33.9842 93.6684 34.2145 92.2213 34.2145 90.2483V44.5749C34.2145 42.6019 33.9842 41.1551 33.5236 40.2344C33.1289 39.3137 32.3393 38.6889 31.155 38.3601C30.0365 37.9655 28.227 37.7682 25.7268 37.7682C25.5294 37.7682 25.4307 37.5709 25.4307 37.1764C25.4307 36.7818 25.5294 36.5845 25.7268 36.5845H64.6122C65.007 36.5845 65.2705 36.6831 65.4018 36.8804C65.5331 37.0119 65.6318 37.3079 65.6979 37.7682L66.9809 50.395C66.9809 50.5923 66.8161 50.691 66.4874 50.691C66.1587 50.691 65.9279 50.5923 65.7966 50.395C65.1383 46.7122 63.7569 43.8185 61.6514 41.7141C59.6117 39.6097 57.0786 38.5574 54.052 38.5574H48.4264C46.1236 38.5574 44.4128 38.7547 43.2943 39.1493C42.2416 39.4781 41.5178 40.1029 41.1231 41.0236C40.7283 41.8785 40.5309 43.2596 40.5309 45.1667V63.9096C43.6233 63.5811 46.288 63.4164 48.5251 63.4164ZM49.5121 96.8577C54.7757 96.8577 58.5919 95.6739 60.9606 93.3064C63.3292 90.8728 64.5135 87.1903 64.5135 82.2579C64.5135 76.2079 62.9344 71.9 59.7762 69.3352C56.618 66.7043 52.0781 65.3893 46.1565 65.3893C44.1826 65.3893 42.3074 65.5206 40.5309 65.7839V90.2483C40.5309 92.5498 41.1231 94.2268 42.3074 95.2793C43.4917 96.3318 45.8932 96.8577 49.5121 96.8577Z" fill="#A58677" fill-opacity="0.8"/>
<path d="M68.6409 89.4306L68.6408 89.4306L68.6387 89.4342C67.0179 92.2847 64.7186 94.4874 61.7332 96.0441C58.7469 97.6014 55.3332 98.3833 51.4859 98.3833C49.7182 98.3833 47.6529 98.2851 45.289 98.0882L45.289 98.0882L45.2849 98.0879C44.2958 98.0217 43.1098 97.9565 41.7272 97.8904C40.3409 97.8241 38.8565 97.7914 37.274 97.7914L37.2703 97.7915L30.5591 97.8901L30.5591 97.8899L30.5489 97.8905C29.3865 97.9553 27.7416 97.9879 25.6118 97.9887C25.5951 97.9244 25.582 97.8148 25.582 97.6468C25.582 97.4788 25.5951 97.3692 25.6118 97.3049C28.0751 97.3013 29.918 97.1369 31.1231 96.8026L31.1232 96.8029L31.1353 96.7989C32.3683 96.3881 33.2508 95.6925 33.7472 94.7007C34.2348 93.7264 34.4645 92.2307 34.4645 90.2483V44.5749C34.4645 42.5969 34.2358 41.1038 33.7505 40.1291C33.3191 39.129 32.462 38.4654 31.2301 38.1215C30.0695 37.7142 28.2287 37.5186 25.7337 37.5182C25.7322 37.5157 25.7304 37.5125 25.7283 37.5084C25.7051 37.462 25.6807 37.3609 25.6807 37.1764C25.6807 36.9918 25.7051 36.8907 25.7283 36.8443C25.7304 36.8402 25.7322 36.837 25.7337 36.8345H64.6122C64.9799 36.8345 65.1331 36.9279 65.1937 37.0189L65.2074 37.0395L65.2249 37.0571C65.2506 37.0828 65.2928 37.1471 65.3371 37.2801C65.3797 37.4078 65.418 37.5793 65.4497 37.7987L66.7303 50.4017C66.7298 50.402 66.7294 50.4023 66.7289 50.4026C66.7041 50.4174 66.6349 50.441 66.4874 50.441C66.2403 50.441 66.107 50.3774 66.0321 50.2923C65.3631 46.6007 63.9674 43.6761 61.8295 41.5387C59.7413 39.3849 57.1431 38.3074 54.052 38.3074H48.4264C46.1196 38.3074 44.3753 38.5039 43.2154 38.912C42.1044 39.2601 41.3211 39.9298 40.8947 40.9219C40.4769 41.829 40.2809 43.2552 40.2809 45.1667V63.9096V64.1876L40.5573 64.1582C43.6441 63.8303 46.2995 63.6664 48.5251 63.6664C56.1354 63.6664 61.7983 65.0202 65.553 67.6893C69.2921 70.3473 71.1721 74.3337 71.1721 79.6931C71.1721 83.3353 70.3264 86.5794 68.6409 89.4306ZM61.1373 93.4832L61.1397 93.4808C63.5708 90.983 64.7635 87.2261 64.7635 82.2579C64.7635 76.171 63.1749 71.774 59.935 69.1421C56.7158 66.461 52.1106 65.1393 46.1565 65.1393C44.1715 65.1393 42.284 65.2713 40.4942 65.5366L40.2809 65.5683V65.7839V90.2483C40.2809 92.5883 40.8831 94.348 42.1413 95.4662C42.7784 96.0324 43.7217 96.4398 44.9433 96.7074C46.1678 96.9756 47.6923 97.1077 49.5121 97.1077C54.8053 97.1077 58.701 95.9184 61.1373 93.4832Z" stroke="#A69985" stroke-opacity="0.8" stroke-width="0.5"/>
</svg>
