<svg width="368" height="509" viewBox="0 0 368 509" fill="none" xmlns="http://www.w3.org/2000/svg">
<path d="M343.67 305.594C344.973 305.594 345.62 306.57 345.62 308.521C345.62 310.473 344.973 311.449 343.67 311.449C337.494 311.449 327.904 311.125 314.9 310.473C301.896 309.821 292.468 309.497 286.616 309.497C279.464 309.497 270.361 309.821 259.308 310.473C248.904 311.125 240.939 311.449 235.413 311.449C234.112 311.449 233.462 310.473 233.462 308.521C233.462 306.57 234.112 305.594 235.413 305.594C247.441 305.594 256.219 304.454 261.746 302.178C267.272 299.901 270.036 295.998 270.036 290.468C270.036 285.914 267.923 278.92 263.697 269.487L207.616 149.942H115.449L73.5112 249.481C68.9596 260.541 66.684 269.649 66.684 276.806C66.684 295.998 82.6139 305.594 114.474 305.594C116.099 305.594 116.912 306.57 116.912 308.521C116.912 310.473 116.099 311.449 114.474 311.449C108.622 311.449 100.169 311.125 89.1161 310.473C76.7621 309.821 66.0337 309.497 56.9309 309.497C48.4781 309.497 38.725 309.821 27.6716 310.473C17.9185 311.125 9.79064 311.449 3.28887 311.449C1.6632 311.449 0.850586 310.473 0.850586 308.521C0.850586 306.57 1.6632 305.594 3.28887 305.594C12.3916 305.594 20.0314 303.966 26.2086 300.715C32.7104 297.136 38.725 291.119 44.2519 282.661C50.1037 273.878 56.4433 261.355 63.2704 245.09L166.166 2.09783C166.816 1.12196 167.954 0.634033 169.579 0.634033C171.204 0.634033 172.18 1.12196 172.505 2.09783L287.592 244.602C298.645 268.674 308.073 284.938 315.876 293.395C323.678 301.528 332.941 305.594 343.67 305.594ZM119.838 139.696H202.74L158.851 46.9879L119.838 139.696Z" fill="#A58677" fill-opacity="0.1"/>
<path d="M259.292 310.224L259.293 310.224C270.349 309.571 279.457 309.247 286.616 309.247C292.475 309.247 301.908 309.571 314.913 310.224C327.916 310.876 337.501 311.199 343.67 311.199C344.249 311.199 344.653 310.988 344.926 310.579C345.21 310.151 345.37 309.478 345.37 308.521C345.37 307.565 345.21 306.892 344.926 306.464C344.653 306.055 344.249 305.844 343.67 305.844C332.87 305.844 323.542 301.747 315.695 293.569L315.692 293.565C307.86 285.076 298.418 268.779 287.364 244.706L172.279 2.20502L172.273 2.19131L172.268 2.17691C171.995 1.35849 171.17 0.884033 169.579 0.884033C168.013 0.884033 166.976 1.34837 166.386 2.2174L63.5009 245.187L259.292 310.224ZM259.292 310.224C248.89 310.876 240.931 311.199 235.413 311.199C234.835 311.199 234.431 310.988 234.158 310.579C233.873 310.151 233.712 309.478 233.712 308.521C233.712 307.565 233.873 306.892 234.158 306.464C234.431 306.055 234.835 305.844 235.413 305.844C247.448 305.844 256.267 304.705 261.841 302.41L261.746 302.178M259.292 310.224L261.746 302.178M261.746 302.178L261.841 302.409C264.637 301.258 266.752 299.686 268.168 297.688C269.584 295.687 270.286 293.276 270.286 290.468C270.286 285.856 268.152 278.819 263.925 269.384L263.923 269.38M261.746 302.178L263.923 269.38M263.923 269.38L207.843 149.836L207.775 149.692M263.923 269.38L207.775 149.692M207.775 149.692H207.616M207.775 149.692H207.616M207.616 149.692H115.449H115.284M207.616 149.692H115.284M115.284 149.692L115.219 149.845M115.284 149.692L115.219 149.845M115.219 149.845L73.2808 249.384L73.28 249.386M115.219 149.845L73.28 249.386M73.28 249.386C68.7232 260.458 66.434 269.602 66.434 276.806C66.434 286.486 70.4595 293.766 78.5025 298.611C86.5252 303.444 98.5271 305.844 114.474 305.844C115.235 305.844 115.764 306.07 116.111 306.486C116.464 306.91 116.662 307.574 116.662 308.521C116.662 309.469 116.464 310.133 116.111 310.557C115.764 310.973 115.235 311.199 114.474 311.199C108.63 311.199 100.183 310.876 89.1309 310.224L89.1293 310.224M73.28 249.386L89.1293 310.224M89.1293 310.224C76.7722 309.571 66.0393 309.247 56.9309 309.247C48.472 309.247 38.7138 309.571 27.6569 310.224L27.6549 310.224M89.1293 310.224L27.6549 310.224M27.6549 310.224C17.905 310.876 9.78309 311.199 3.28887 311.199C2.52781 311.199 1.99837 310.973 1.65221 310.557C1.29875 310.133 1.10059 309.469 1.10059 308.521C1.10059 307.574 1.29875 306.91 1.65221 306.486C1.99836 306.07 2.52781 305.844 3.28887 305.844C12.4203 305.844 20.1027 304.211 26.3251 300.936L26.3292 300.934M27.6549 310.224L26.3292 300.934M26.3292 300.934C32.8772 297.33 38.9191 291.278 44.4606 282.799M26.3292 300.934L44.4606 282.799M44.4606 282.799C50.3248 273.997 56.6712 261.457 63.5006 245.187L44.4606 282.799ZM119.608 139.599L119.462 139.946H119.838H202.74H203.135L202.966 139.589L159.077 46.881L158.837 46.3753L158.62 46.891L119.608 139.599Z" stroke="#A69985" stroke-opacity="0.2" stroke-width="0.5"/>
<path d="M249.309 326.553C328.161 326.553 367.587 354.61 367.587 410.722C367.587 429.765 363.167 446.772 354.332 461.734C345.834 476.696 333.771 488.26 318.135 496.422C302.5 504.583 284.656 508.664 264.604 508.664C255.427 508.664 244.721 508.154 232.485 507.134C227.387 506.793 221.269 506.455 214.131 506.114C206.994 505.772 199.346 505.604 191.189 505.604L156.521 506.114C150.404 506.455 141.737 506.624 130.521 506.624C129.841 506.624 129.501 505.604 129.501 503.563C129.501 501.523 129.841 500.503 130.521 500.503C143.436 500.503 152.953 499.651 159.071 497.952C165.188 495.912 169.437 492.509 171.816 487.75C174.195 482.99 175.385 475.507 175.385 465.305V229.122C175.385 218.919 174.195 211.437 171.816 206.676C169.777 201.916 165.698 198.685 159.58 196.984C153.803 194.944 144.456 193.924 131.54 193.924C130.521 193.924 130.011 192.903 130.011 190.863C130.011 188.822 130.521 187.802 131.54 187.802H332.41C334.449 187.802 335.81 188.312 336.488 189.333C337.167 190.013 337.676 191.543 338.018 193.924L344.645 259.218C344.645 260.239 343.794 260.749 342.096 260.749C340.398 260.749 339.206 260.239 338.528 259.218C335.127 240.174 327.991 225.211 317.115 214.328C306.579 203.446 293.494 198.005 277.859 198.005H248.799C236.903 198.005 228.066 199.025 222.288 201.065C216.85 202.765 213.112 205.996 211.072 210.757C209.033 215.179 208.013 222.32 208.013 232.182V329.104C223.988 327.405 237.753 326.553 249.309 326.553ZM254.407 499.482C281.597 499.482 301.311 493.361 313.546 481.118C325.782 468.534 331.9 449.491 331.9 423.985C331.9 392.7 323.743 370.423 307.429 357.16C291.114 343.556 267.662 336.756 237.073 336.756C226.877 336.756 217.19 337.434 208.013 338.796V465.305C208.013 477.206 211.072 485.878 217.19 491.321C223.308 496.763 235.714 499.482 254.407 499.482Z" fill="#A58677" fill-opacity="0.1"/>
<path d="M354.117 461.607L354.115 461.61C345.641 476.529 333.614 488.06 318.019 496.2C302.425 504.341 284.622 508.414 264.604 508.414C255.436 508.414 244.737 507.905 232.506 506.885L232.502 506.885C227.401 506.543 221.282 506.206 214.143 505.864C207.001 505.522 199.35 505.354 191.189 505.354L191.186 505.354L156.518 505.864L156.508 505.864C150.397 506.205 141.735 506.374 130.521 506.374C130.347 506.374 130.152 506.257 129.993 505.78C129.836 505.309 129.751 504.576 129.751 503.563C129.751 502.55 129.836 501.818 129.993 501.347C130.152 500.869 130.347 500.753 130.521 500.753C143.44 500.753 152.985 499.901 159.137 498.193L159.138 498.193L159.15 498.189C165.316 496.132 169.625 492.693 172.04 487.861C174.446 483.048 175.635 475.516 175.635 465.305V229.122C175.635 218.914 174.447 211.386 172.043 206.571C169.967 201.731 165.821 198.461 159.656 196.746C153.834 194.692 144.454 193.674 131.54 193.674C131.329 193.674 131.156 193.622 131.01 193.524C130.863 193.426 130.729 193.272 130.617 193.047C130.388 192.589 130.261 191.87 130.261 190.863C130.261 189.855 130.388 189.137 130.617 188.679C130.729 188.454 130.863 188.3 131.01 188.202C131.156 188.104 131.329 188.052 131.54 188.052H332.41C334.422 188.052 335.673 188.557 336.28 189.471L336.294 189.492L336.311 189.509C336.611 189.809 336.892 190.319 337.142 191.069C337.39 191.814 337.6 192.774 337.77 193.954C337.77 193.956 337.77 193.957 337.77 193.959L344.395 259.23C344.392 259.649 344.223 259.945 343.879 260.152C343.512 260.372 342.928 260.499 342.096 260.499C340.472 260.499 339.385 260.02 338.764 259.122C335.354 240.066 328.203 225.069 317.293 214.153C306.708 203.221 293.558 197.755 277.859 197.755H248.799C236.899 197.755 228.029 198.774 222.209 200.828C216.713 202.548 212.915 205.824 210.844 210.656C208.782 215.129 207.763 222.316 207.763 232.182V329.104V329.382L208.04 329.353C224.008 327.654 237.764 326.803 249.309 326.803C288.713 326.803 318.221 333.815 337.873 347.799C357.509 361.773 367.337 382.732 367.337 410.722C367.337 429.725 362.927 446.687 354.117 461.607ZM313.723 481.295L313.726 481.293C326.024 468.644 332.15 449.527 332.15 423.985C332.15 392.663 323.983 370.297 307.587 356.967C291.212 343.312 267.695 336.506 237.073 336.506C226.866 336.506 217.167 337.185 207.977 338.549L207.763 338.581V338.796V465.305C207.763 477.244 210.832 485.999 217.024 491.507C220.128 494.269 224.806 496.322 231.029 497.687C237.256 499.052 245.05 499.732 254.407 499.732C281.627 499.732 301.42 493.605 313.723 481.295Z" stroke="#A69985" stroke-opacity="0.2" stroke-width="0.5"/>
</svg>
