<svg width="120" height="165" viewBox="0 0 120 165" fill="none" xmlns="http://www.w3.org/2000/svg">
<path d="M112.016 98.7371C112.439 98.7371 112.649 99.0529 112.649 99.6847C112.649 100.316 112.439 100.632 112.016 100.632C110.009 100.632 106.894 100.527 102.669 100.316C98.444 100.105 95.381 100.001 93.4798 100.001C91.156 100.001 88.1987 100.105 84.6076 100.316C81.2276 100.527 78.6399 100.632 76.8444 100.632C76.4218 100.632 76.2106 100.316 76.2106 99.6847C76.2106 99.0529 76.4218 98.7371 76.8444 98.7371C80.7523 98.7371 83.6041 98.3681 85.3997 97.6315C87.1952 96.8946 88.0931 95.6311 88.0931 93.8411C88.0931 92.367 87.4065 90.1033 86.0335 87.0498L67.8137 48.3556H37.8699L24.2447 80.5745C22.7659 84.1543 22.0266 87.1025 22.0266 89.4189C22.0266 95.6311 27.202 98.7371 37.553 98.7371C38.081 98.7371 38.3452 99.0529 38.3452 99.6847C38.3452 100.316 38.081 100.632 37.553 100.632C35.6518 100.632 32.9056 100.527 29.3145 100.316C25.3008 100.105 21.8153 100.001 18.858 100.001C16.1117 100.001 12.9431 100.105 9.35199 100.316C6.18333 100.527 3.54269 100.632 1.43035 100.632C0.902192 100.632 0.638184 100.316 0.638184 99.6847C0.638184 99.0529 0.902192 98.7371 1.43035 98.7371C4.38771 98.7371 6.86978 98.2102 8.87669 97.1577C10.989 95.9995 12.9431 94.0517 14.7387 91.3141C16.6399 88.4713 18.6995 84.4176 20.9176 79.153L54.3469 0.501026C54.5581 0.185155 54.9278 0.0272217 55.4559 0.0272217C55.984 0.0272217 56.3008 0.185155 56.4065 0.501026L93.7967 78.9951C97.3878 86.7867 100.451 92.0511 102.986 94.7887C105.521 97.4209 108.53 98.7371 112.016 98.7371ZM39.2958 45.0389H66.2294L51.9704 15.0311L39.2958 45.0389Z" fill="#A58677" fill-opacity="0.1"/>
<path d="M84.5929 100.067L84.592 100.067C81.2136 100.278 78.632 100.382 76.8444 100.382C76.7056 100.382 76.6303 100.336 76.5769 100.256C76.5115 100.159 76.4606 99.9806 76.4606 99.6847C76.4606 99.3888 76.5115 99.2106 76.5769 99.113C76.6303 99.0331 76.7056 98.9871 76.8444 98.9871C80.7587 98.9871 83.6516 98.6188 85.4946 97.8628L85.4947 97.8628C86.4252 97.4809 87.1411 96.9549 87.6235 96.276C88.107 95.5956 88.3431 94.7797 88.3431 93.8411C88.3431 92.3088 87.6352 90.0022 86.2615 86.9473L86.2597 86.9433L68.0399 48.2491L67.9723 48.1056H67.8137H37.8699H37.7042L37.6396 48.2582L24.0144 80.4771L24.0136 80.479C22.5296 84.0715 21.7766 87.055 21.7766 89.4189C21.7766 92.6096 23.1139 95.0221 25.7796 96.6219C28.4249 98.2095 32.3607 98.9871 37.553 98.9871C37.7656 98.9871 37.8836 99.0485 37.9553 99.1343C38.0342 99.2287 38.0952 99.3975 38.0952 99.6847C38.0952 99.9718 38.0342 100.141 37.9553 100.235C37.8836 100.321 37.7656 100.382 37.553 100.382C35.6593 100.382 32.9188 100.278 29.3292 100.067L29.3277 100.067C25.311 99.8556 21.8209 99.7506 18.858 99.7506C16.1057 99.7506 12.9319 99.8556 9.33732 100.067L9.33537 100.067C6.16985 100.278 3.53518 100.382 1.43035 100.382C1.21774 100.382 1.09974 100.321 1.02802 100.235C0.949121 100.141 0.888184 99.9719 0.888184 99.6847C0.888184 99.3975 0.949121 99.2287 1.02802 99.1343C1.09974 99.0485 1.21774 98.9871 1.43035 98.9871C4.41629 98.9871 6.94085 98.4552 8.99282 97.3792L8.99689 97.3769C11.1554 96.1934 13.1369 94.2118 14.9471 91.4521C16.8609 88.5903 18.9275 84.5204 21.148 79.2501L54.5671 0.622072C54.7177 0.41099 54.9888 0.277222 55.4559 0.277222C55.9499 0.277222 56.1165 0.422034 56.1695 0.580371L56.1743 0.5948L56.1808 0.608538L93.5696 79.0998C93.5699 79.1003 93.5701 79.1008 93.5704 79.1013C97.1616 86.893 100.238 92.1894 102.802 94.9586L102.806 94.9621C105.385 97.6406 108.459 98.9871 112.016 98.9871C112.155 98.9871 112.23 99.0332 112.284 99.1129C112.349 99.2105 112.399 99.3886 112.399 99.6847C112.399 99.9808 112.349 100.159 112.284 100.257C112.23 100.336 112.155 100.382 112.016 100.382C110.016 100.382 106.906 100.278 102.681 100.067C98.456 99.8557 95.3877 99.7506 93.4798 99.7506C91.1493 99.7506 88.1866 99.8557 84.5929 100.067ZM39.0655 44.9416L38.9188 45.2889H39.2958H66.2294H66.625L66.4552 44.9316L52.1962 14.9238L51.957 14.4204L51.7401 14.9338L39.0655 44.9416Z" stroke="#A69985" stroke-opacity="0.2" stroke-width="0.5"/>
<path d="M81.3591 105.521C106.977 105.521 119.786 114.603 119.786 132.765C119.786 138.929 118.35 144.434 115.48 149.277C112.719 154.12 108.8 157.863 103.72 160.504C98.6402 163.146 92.843 164.467 86.3281 164.467C83.3467 164.467 79.8684 164.302 75.8932 163.972C74.2368 163.861 72.2492 163.752 69.9303 163.642C67.6115 163.531 65.127 163.477 62.4768 163.477L51.2137 163.642C49.2261 163.752 46.4103 163.807 42.7663 163.807C42.5455 163.807 42.4351 163.477 42.4351 162.816C42.4351 162.156 42.5455 161.825 42.7663 161.825C46.9623 161.825 50.0542 161.55 52.0418 161C54.0295 160.339 55.4097 159.238 56.1827 157.698C56.9557 156.157 57.3421 153.735 57.3421 150.432V73.9844C57.3421 70.6821 56.9557 68.2604 56.1827 66.7193C55.5202 65.1783 54.1951 64.1325 52.2075 63.5822C50.3303 62.9217 47.2936 62.5915 43.0976 62.5915C42.7663 62.5915 42.6007 62.2613 42.6007 61.6008C42.6007 60.9403 42.7663 60.6101 43.0976 60.6101H108.357C109.02 60.6101 109.462 60.7752 109.683 61.1055C109.903 61.3256 110.069 61.8209 110.179 62.5915L112.333 83.7262C112.333 84.0564 112.056 84.2215 111.505 84.2215C110.953 84.2215 110.565 84.0564 110.345 83.7262C109.24 77.5619 106.922 72.7185 103.388 69.1961C99.9653 65.6737 95.7141 63.9124 90.6346 63.9124H81.1935C77.3287 63.9124 74.4576 64.2426 72.5805 64.9031C70.8137 65.4534 69.5991 66.4992 68.9365 68.0403C68.274 69.4713 67.9427 71.7829 67.9427 74.9751V106.347C73.1326 105.797 77.6047 105.521 81.3591 105.521ZM83.0155 161.495C91.8492 161.495 98.2538 159.514 102.229 155.551C106.204 151.478 108.192 145.314 108.192 137.058C108.192 126.932 105.542 119.721 100.241 115.428C94.9411 111.025 87.3219 108.824 77.3839 108.824C74.0712 108.824 70.9241 109.043 67.9427 109.484V150.432C67.9427 154.285 68.9365 157.092 70.9241 158.853C72.9118 160.615 76.9422 161.495 83.0155 161.495Z" fill="#A58677" fill-opacity="0.1"/>
<path d="M115.265 149.149L115.263 149.153C112.526 153.953 108.643 157.662 103.604 160.283L103.72 160.504L103.604 160.283C98.5652 162.904 92.8085 164.217 86.3281 164.217C83.3555 164.217 79.8844 164.053 75.9139 163.723L75.9098 163.722C74.2513 163.612 72.262 163.503 69.9422 163.392C67.6188 163.281 65.1303 163.227 62.4768 163.227L62.4731 163.227L51.21 163.392L51.21 163.391L51.1998 163.392C49.2232 163.502 46.4203 163.557 42.7887 163.557C42.7809 163.545 42.769 163.522 42.755 163.48C42.7129 163.354 42.6851 163.139 42.6851 162.816C42.6851 162.493 42.7129 162.278 42.755 162.152C42.769 162.11 42.7809 162.087 42.7887 162.075C46.9778 162.074 50.0904 161.799 52.1085 161.241L52.1086 161.241L52.1207 161.237C54.1568 160.56 55.5973 159.422 56.4061 157.81C57.2062 156.215 57.5921 153.744 57.5921 150.432V73.9844C57.5921 70.6771 57.2073 68.209 56.4094 66.6138C55.7101 64.9932 54.3173 63.9088 52.2824 63.3435C50.3621 62.67 47.2918 62.3415 43.0976 62.3415C43.0584 62.3415 43.0352 62.3324 43.0186 62.3213C43.0004 62.3093 42.9749 62.2846 42.9484 62.2317C42.8918 62.119 42.8507 61.9182 42.8507 61.6008C42.8507 61.2834 42.8918 61.0826 42.9484 60.9699C42.9749 60.917 43.0004 60.8923 43.0186 60.8802C43.0352 60.8692 43.0584 60.8601 43.0976 60.8601H108.357C108.993 60.8601 109.325 61.0201 109.475 61.2442L109.488 61.2648L109.506 61.2823C109.576 61.3524 109.657 61.4886 109.735 61.7213C109.811 61.9487 109.877 62.2475 109.931 62.6221L112.083 83.7372C112.08 83.8099 112.055 83.8487 111.997 83.8831C111.917 83.9313 111.764 83.9715 111.505 83.9715C111.029 83.9715 110.744 83.8393 110.581 83.6268C109.466 77.4521 107.133 72.5765 103.566 69.0204C100.095 65.4487 95.7784 63.6624 90.6346 63.6624H81.1935C77.3248 63.6624 74.4203 63.9918 72.5018 64.6658C70.6769 65.2353 69.4025 66.3259 68.7082 67.9384C68.0226 69.4217 67.6927 71.7786 67.6927 74.9751V106.347V106.625L67.9691 106.595C73.1533 106.046 77.6161 105.771 81.3591 105.771C94.1462 105.771 103.692 108.039 110.035 112.536C116.362 117.022 119.536 123.75 119.536 132.765C119.536 138.889 118.11 144.349 115.265 149.149ZM42.799 163.568C42.7988 163.569 42.7967 163.567 42.7929 163.563C42.7972 163.565 42.7991 163.567 42.799 163.568ZM42.799 162.064C42.7991 162.065 42.7972 162.067 42.7929 162.07C42.7967 162.065 42.7988 162.064 42.799 162.064ZM102.406 155.728L102.408 155.726C106.446 151.588 108.442 145.35 108.442 137.058C108.442 126.895 105.782 119.595 100.4 115.235C95.0387 110.781 87.3544 108.574 77.3839 108.574C74.0602 108.574 70.9008 108.794 67.9062 109.237L67.6927 109.268V109.484V150.432C67.6927 154.323 68.6967 157.213 70.7583 159.04C71.7971 159.961 73.3484 160.634 75.3843 161.079C77.4232 161.525 79.9684 161.745 83.0155 161.745C91.8786 161.745 98.3626 159.758 102.406 155.728Z" stroke="#A69985" stroke-opacity="0.2" stroke-width="0.5"/>
</svg>
